<?xml version="1.0" standalone="no"?>
<!DOCTYPE svg PUBLIC "-//W3C//DTD SVG 20010904//EN"
 "http://www.w3.org/TR/2001/REC-SVG-20010904/DTD/svg10.dtd">
<svg version="1.0" xmlns="http://www.w3.org/2000/svg"
 width="512.000000pt" height="512.000000pt" viewBox="0 0 512.000000 512.000000"
 preserveAspectRatio="xMidYMid meet">
<metadata>
Created by potrace 1.14, written by Peter Selinger 2001-2017
</metadata>
<g transform="translate(0.000000,512.000000) scale(0.100000,-0.100000)"
fill="#000000" stroke="none">
<path d="M0 2560 l0 -2560 2560 0 2560 0 0 2560 0 2560 -2560 0 -2560 0 0
-2560z m2045 1751 c128 -33 218 -84 311 -176 67 -66 89 -96 127 -175 26 -52
256 -668 512 -1368 255 -699 474 -1290 485 -1312 31 -60 80 -111 130 -134 36
-16 73 -21 185 -26 l140 -5 3 -104 c8 -281 -37 -341 -263 -349 -228 -8 -415
53 -550 179 -70 66 -141 165 -175 245 -48 110 -394 1044 -410 1107 -10 38 -20
71 -22 73 -2 2 -15 -29 -27 -69 -13 -39 -142 -375 -286 -746 -275 -703 -282
-717 -352 -747 -45 -19 -618 -21 -610 -1 3 6 222 518 487 1137 265 619 485
1134 487 1146 6 29 -224 695 -262 757 -66 110 -139 137 -367 137 l-148 0 0
128 c0 147 9 189 52 238 38 43 73 62 152 80 86 20 296 12 401 -15z"/>
</g>
</svg>
